<mxfile host="Electron" agent="Mozilla/5.0 (Windows NT 10.0; Win64; x64) AppleWebKit/537.36 (KHTML, like Gecko) draw.io/24.7.5 Chrome/126.0.6478.183 Electron/31.3.0 Safari/537.36" version="24.7.5">
  <diagram name="Page-1" id="3phLT39RTypJBzAJomp0">
    <mxGraphModel dx="-127" dy="419" grid="1" gridSize="10" guides="1" tooltips="1" connect="1" arrows="1" fold="1" page="1" pageScale="1" pageWidth="827" pageHeight="1169" math="0" shadow="0">
      <root>
        <mxCell id="0" />
        <mxCell id="1" parent="0" />
        <mxCell id="AgC99t1CVHgvSRt5C8VI-3" value="" style="curved=1;endArrow=none;html=1;rounded=0;strokeWidth=8;endFill=0;strokeColor=#00CCCC;" parent="1" edge="1">
          <mxGeometry width="50" height="50" relative="1" as="geometry">
            <mxPoint x="1265" y="400.35" as="sourcePoint" />
            <mxPoint x="1305" y="440.35" as="targetPoint" />
            <Array as="points">
              <mxPoint x="1285" y="400.35" />
              <mxPoint x="1285" y="440.35" />
            </Array>
          </mxGeometry>
        </mxCell>
        <mxCell id="AgC99t1CVHgvSRt5C8VI-4" value="" style="curved=1;endArrow=none;html=1;rounded=0;strokeWidth=8;endFill=0;strokeColor=#3399FF;" parent="1" edge="1">
          <mxGeometry width="50" height="50" relative="1" as="geometry">
            <mxPoint x="1081" y="360.35" as="sourcePoint" />
            <mxPoint x="1121" y="400.35" as="targetPoint" />
            <Array as="points">
              <mxPoint x="1101" y="360.35" />
              <mxPoint x="1101" y="400.35" />
            </Array>
          </mxGeometry>
        </mxCell>
        <mxCell id="AgC99t1CVHgvSRt5C8VI-5" value="" style="ellipse;whiteSpace=wrap;html=1;aspect=fixed;strokeColor=none;rounded=0;strokeWidth=8;align=center;verticalAlign=middle;fontFamily=Helvetica;fontSize=11;fontColor=default;labelBackgroundColor=default;fillColor=#666666;" parent="1" vertex="1">
          <mxGeometry x="1081" y="350.35" width="20" height="20" as="geometry" />
        </mxCell>
        <mxCell id="AgC99t1CVHgvSRt5C8VI-6" value="" style="endArrow=none;html=1;rounded=0;strokeColor=#666666;strokeWidth=8;align=center;verticalAlign=middle;fontFamily=Helvetica;fontSize=11;fontColor=default;labelBackgroundColor=default;endFill=0;curved=1;" parent="1" edge="1">
          <mxGeometry width="50" height="50" relative="1" as="geometry">
            <mxPoint x="991" y="359.98" as="sourcePoint" />
            <mxPoint x="1091" y="359.98" as="targetPoint" />
          </mxGeometry>
        </mxCell>
        <mxCell id="AgC99t1CVHgvSRt5C8VI-7" value="" style="ellipse;whiteSpace=wrap;html=1;aspect=fixed;strokeColor=none;rounded=0;strokeWidth=8;align=center;verticalAlign=middle;fontFamily=Helvetica;fontSize=11;fontColor=default;labelBackgroundColor=default;fillColor=#666666;" parent="1" vertex="1">
          <mxGeometry x="981" y="350.35" width="20" height="20" as="geometry" />
        </mxCell>
        <mxCell id="AgC99t1CVHgvSRt5C8VI-8" value="" style="ellipse;whiteSpace=wrap;html=1;aspect=fixed;strokeColor=none;rounded=0;strokeWidth=8;align=center;verticalAlign=middle;fontFamily=Helvetica;fontSize=11;fontColor=default;labelBackgroundColor=default;fillColor=#3399FF;" parent="1" vertex="1">
          <mxGeometry x="1211" y="390.35" width="20" height="20" as="geometry" />
        </mxCell>
        <mxCell id="AgC99t1CVHgvSRt5C8VI-9" value="" style="endArrow=none;html=1;rounded=0;strokeColor=#666666;strokeWidth=8;align=center;verticalAlign=middle;fontFamily=Helvetica;fontSize=11;fontColor=default;labelBackgroundColor=default;endFill=0;curved=1;" parent="1" edge="1">
          <mxGeometry width="50" height="50" relative="1" as="geometry">
            <mxPoint x="1091" y="359.91999999999996" as="sourcePoint" />
            <mxPoint x="1261" y="360.35" as="targetPoint" />
          </mxGeometry>
        </mxCell>
        <mxCell id="AgC99t1CVHgvSRt5C8VI-10" value="" style="endArrow=none;html=1;rounded=0;strokeColor=#3399FF;strokeWidth=8;align=center;verticalAlign=middle;fontFamily=Helvetica;fontSize=11;fontColor=default;labelBackgroundColor=default;endFill=0;curved=1;" parent="1" edge="1">
          <mxGeometry width="50" height="50" relative="1" as="geometry">
            <mxPoint x="1121" y="400.28" as="sourcePoint" />
            <mxPoint x="1221" y="400.28" as="targetPoint" />
          </mxGeometry>
        </mxCell>
        <mxCell id="AgC99t1CVHgvSRt5C8VI-11" value="" style="ellipse;whiteSpace=wrap;html=1;aspect=fixed;strokeColor=none;rounded=0;strokeWidth=8;align=center;verticalAlign=middle;fontFamily=Helvetica;fontSize=11;fontColor=default;labelBackgroundColor=default;fillColor=#666666;" parent="1" vertex="1">
          <mxGeometry x="1251" y="350.35" width="20" height="20" as="geometry" />
        </mxCell>
        <mxCell id="AgC99t1CVHgvSRt5C8VI-12" value="" style="endArrow=none;html=1;rounded=0;strokeColor=#3399FF;strokeWidth=8;align=center;verticalAlign=middle;fontFamily=Helvetica;fontSize=11;fontColor=default;labelBackgroundColor=default;endFill=0;curved=1;" parent="1" edge="1">
          <mxGeometry width="50" height="50" relative="1" as="geometry">
            <mxPoint x="1221" y="400.01" as="sourcePoint" />
            <mxPoint x="1271" y="400.35" as="targetPoint" />
          </mxGeometry>
        </mxCell>
        <mxCell id="AgC99t1CVHgvSRt5C8VI-13" value="" style="ellipse;whiteSpace=wrap;html=1;aspect=fixed;strokeColor=none;rounded=0;strokeWidth=8;align=center;verticalAlign=middle;fontFamily=Helvetica;fontSize=11;fontColor=default;labelBackgroundColor=default;fillColor=#3399FF;" parent="1" vertex="1">
          <mxGeometry x="1265" y="390.35" width="20" height="20" as="geometry" />
        </mxCell>
        <mxCell id="AgC99t1CVHgvSRt5C8VI-14" value="" style="ellipse;whiteSpace=wrap;html=1;aspect=fixed;strokeColor=none;rounded=0;strokeWidth=8;align=center;verticalAlign=middle;fontFamily=Helvetica;fontSize=11;fontColor=default;labelBackgroundColor=default;fillColor=#3399FF;" parent="1" vertex="1">
          <mxGeometry x="1366" y="390.35" width="20" height="20" as="geometry" />
        </mxCell>
        <mxCell id="AgC99t1CVHgvSRt5C8VI-15" value="" style="endArrow=none;html=1;rounded=0;strokeColor=#3399FF;strokeWidth=8;align=center;verticalAlign=middle;fontFamily=Helvetica;fontSize=11;fontColor=default;labelBackgroundColor=default;endFill=0;curved=1;" parent="1" edge="1">
          <mxGeometry width="50" height="50" relative="1" as="geometry">
            <mxPoint x="1281" y="400.11" as="sourcePoint" />
            <mxPoint x="1371" y="400.35" as="targetPoint" />
          </mxGeometry>
        </mxCell>
        <mxCell id="AgC99t1CVHgvSRt5C8VI-16" value="" style="curved=1;endArrow=none;html=1;rounded=0;strokeWidth=8;endFill=0;strokeColor=#3399FF;" parent="1" edge="1">
          <mxGeometry width="50" height="50" relative="1" as="geometry">
            <mxPoint x="1411" y="360.35" as="sourcePoint" />
            <mxPoint x="1371" y="400.35" as="targetPoint" />
            <Array as="points">
              <mxPoint x="1391" y="360.35" />
              <mxPoint x="1391" y="400.35" />
            </Array>
          </mxGeometry>
        </mxCell>
        <mxCell id="AgC99t1CVHgvSRt5C8VI-17" value="" style="ellipse;whiteSpace=wrap;html=1;aspect=fixed;strokeColor=none;rounded=0;strokeWidth=8;align=center;verticalAlign=middle;fontFamily=Helvetica;fontSize=11;fontColor=default;labelBackgroundColor=default;fillColor=#666666;" parent="1" vertex="1">
          <mxGeometry x="1406" y="350.35" width="20" height="20" as="geometry" />
        </mxCell>
        <mxCell id="AgC99t1CVHgvSRt5C8VI-18" value="" style="endArrow=none;html=1;rounded=0;strokeColor=#666666;strokeWidth=8;align=center;verticalAlign=middle;fontFamily=Helvetica;fontSize=11;fontColor=default;labelBackgroundColor=default;endFill=0;curved=1;" parent="1" edge="1">
          <mxGeometry width="50" height="50" relative="1" as="geometry">
            <mxPoint x="1265" y="360.01" as="sourcePoint" />
            <mxPoint x="1421" y="360.35" as="targetPoint" />
          </mxGeometry>
        </mxCell>
        <mxCell id="AgC99t1CVHgvSRt5C8VI-21" value="" style="ellipse;whiteSpace=wrap;html=1;aspect=fixed;strokeColor=none;rounded=0;strokeWidth=8;align=center;verticalAlign=middle;fontFamily=Helvetica;fontSize=11;fontColor=default;labelBackgroundColor=default;fillColor=#00CCCC;gradientColor=none;" parent="1" vertex="1">
          <mxGeometry x="1301" y="430.35" width="20" height="20" as="geometry" />
        </mxCell>
        <mxCell id="AgC99t1CVHgvSRt5C8VI-22" value="" style="endArrow=none;html=1;rounded=0;strokeColor=#00CCCC;strokeWidth=8;align=center;verticalAlign=middle;fontFamily=Helvetica;fontSize=11;fontColor=default;labelBackgroundColor=default;endFill=0;curved=1;" parent="1" edge="1">
          <mxGeometry width="50" height="50" relative="1" as="geometry">
            <mxPoint x="1316" y="440.06000000000006" as="sourcePoint" />
            <mxPoint x="1406" y="440.30000000000007" as="targetPoint" />
          </mxGeometry>
        </mxCell>
        <mxCell id="AgC99t1CVHgvSRt5C8VI-23" value="" style="ellipse;whiteSpace=wrap;html=1;aspect=fixed;strokeColor=none;rounded=0;strokeWidth=8;align=center;verticalAlign=middle;fontFamily=Helvetica;fontSize=11;fontColor=default;labelBackgroundColor=default;fillColor=#00CCCC;" parent="1" vertex="1">
          <mxGeometry x="1401" y="430.35" width="20" height="20" as="geometry" />
        </mxCell>
        <mxCell id="AgC99t1CVHgvSRt5C8VI-29" value="" style="endArrow=none;html=1;rounded=0;strokeColor=#00CCCC;strokeWidth=8;align=center;verticalAlign=middle;fontFamily=Helvetica;fontSize=11;fontColor=default;labelBackgroundColor=default;endFill=0;curved=1;" parent="1" edge="1">
          <mxGeometry width="50" height="50" relative="1" as="geometry">
            <mxPoint x="1411" y="440.2300000000001" as="sourcePoint" />
            <mxPoint x="1461" y="440.38" as="targetPoint" />
          </mxGeometry>
        </mxCell>
        <mxCell id="AgC99t1CVHgvSRt5C8VI-30" value="" style="ellipse;whiteSpace=wrap;html=1;aspect=fixed;strokeColor=none;rounded=0;strokeWidth=8;align=center;verticalAlign=middle;fontFamily=Helvetica;fontSize=11;fontColor=default;labelBackgroundColor=default;fillColor=#00CCCC;" parent="1" vertex="1">
          <mxGeometry x="1451" y="430.35" width="20" height="20" as="geometry" />
        </mxCell>
        <mxCell id="AgC99t1CVHgvSRt5C8VI-32" value="" style="curved=1;endArrow=none;html=1;rounded=0;strokeWidth=8;endFill=0;strokeColor=#00CCCC;" parent="1" edge="1">
          <mxGeometry width="50" height="50" relative="1" as="geometry">
            <mxPoint x="1265" y="190.00000000000003" as="sourcePoint" />
            <mxPoint x="1305" y="230.00000000000003" as="targetPoint" />
            <Array as="points">
              <mxPoint x="1285" y="190.00000000000003" />
              <mxPoint x="1285" y="230.00000000000003" />
            </Array>
          </mxGeometry>
        </mxCell>
        <mxCell id="AgC99t1CVHgvSRt5C8VI-33" value="" style="curved=1;endArrow=none;html=1;rounded=0;strokeWidth=8;endFill=0;strokeColor=#3399FF;" parent="1" edge="1">
          <mxGeometry width="50" height="50" relative="1" as="geometry">
            <mxPoint x="1081" y="150.00000000000003" as="sourcePoint" />
            <mxPoint x="1121" y="190.00000000000003" as="targetPoint" />
            <Array as="points">
              <mxPoint x="1101" y="150.00000000000003" />
              <mxPoint x="1101" y="190.00000000000003" />
            </Array>
          </mxGeometry>
        </mxCell>
        <mxCell id="AgC99t1CVHgvSRt5C8VI-34" value="" style="ellipse;whiteSpace=wrap;html=1;aspect=fixed;strokeColor=none;rounded=0;strokeWidth=8;align=center;verticalAlign=middle;fontFamily=Helvetica;fontSize=11;fontColor=default;labelBackgroundColor=default;fillColor=#666666;" parent="1" vertex="1">
          <mxGeometry x="1081" y="140.00000000000003" width="20" height="20" as="geometry" />
        </mxCell>
        <mxCell id="AgC99t1CVHgvSRt5C8VI-35" value="" style="endArrow=none;html=1;rounded=0;strokeColor=#666666;strokeWidth=8;align=center;verticalAlign=middle;fontFamily=Helvetica;fontSize=11;fontColor=default;labelBackgroundColor=default;endFill=0;curved=1;" parent="1" edge="1">
          <mxGeometry width="50" height="50" relative="1" as="geometry">
            <mxPoint x="991" y="149.63000000000002" as="sourcePoint" />
            <mxPoint x="1091" y="149.63000000000002" as="targetPoint" />
          </mxGeometry>
        </mxCell>
        <mxCell id="AgC99t1CVHgvSRt5C8VI-36" value="" style="ellipse;whiteSpace=wrap;html=1;aspect=fixed;strokeColor=none;rounded=0;strokeWidth=8;align=center;verticalAlign=middle;fontFamily=Helvetica;fontSize=11;fontColor=default;labelBackgroundColor=default;fillColor=#666666;" parent="1" vertex="1">
          <mxGeometry x="981" y="140.00000000000003" width="20" height="20" as="geometry" />
        </mxCell>
        <mxCell id="AgC99t1CVHgvSRt5C8VI-37" value="" style="ellipse;whiteSpace=wrap;html=1;aspect=fixed;strokeColor=none;rounded=0;strokeWidth=8;align=center;verticalAlign=middle;fontFamily=Helvetica;fontSize=11;fontColor=default;labelBackgroundColor=default;fillColor=#3399FF;" parent="1" vertex="1">
          <mxGeometry x="1211" y="180.00000000000003" width="20" height="20" as="geometry" />
        </mxCell>
        <mxCell id="AgC99t1CVHgvSRt5C8VI-38" value="" style="endArrow=none;html=1;rounded=0;strokeColor=#666666;strokeWidth=8;align=center;verticalAlign=middle;fontFamily=Helvetica;fontSize=11;fontColor=default;labelBackgroundColor=default;endFill=0;curved=1;" parent="1" edge="1">
          <mxGeometry width="50" height="50" relative="1" as="geometry">
            <mxPoint x="1091" y="149.56999999999996" as="sourcePoint" />
            <mxPoint x="1261" y="150.00000000000003" as="targetPoint" />
          </mxGeometry>
        </mxCell>
        <mxCell id="AgC99t1CVHgvSRt5C8VI-39" value="" style="endArrow=none;html=1;rounded=0;strokeColor=#3399FF;strokeWidth=8;align=center;verticalAlign=middle;fontFamily=Helvetica;fontSize=11;fontColor=default;labelBackgroundColor=default;endFill=0;curved=1;" parent="1" edge="1">
          <mxGeometry width="50" height="50" relative="1" as="geometry">
            <mxPoint x="1121" y="189.92999999999998" as="sourcePoint" />
            <mxPoint x="1221" y="189.92999999999998" as="targetPoint" />
          </mxGeometry>
        </mxCell>
        <mxCell id="AgC99t1CVHgvSRt5C8VI-40" value="" style="ellipse;whiteSpace=wrap;html=1;aspect=fixed;strokeColor=none;rounded=0;strokeWidth=8;align=center;verticalAlign=middle;fontFamily=Helvetica;fontSize=11;fontColor=default;labelBackgroundColor=default;fillColor=#666666;" parent="1" vertex="1">
          <mxGeometry x="1251" y="140.00000000000003" width="20" height="20" as="geometry" />
        </mxCell>
        <mxCell id="AgC99t1CVHgvSRt5C8VI-41" value="" style="endArrow=none;html=1;rounded=0;strokeColor=#3399FF;strokeWidth=8;align=center;verticalAlign=middle;fontFamily=Helvetica;fontSize=11;fontColor=default;labelBackgroundColor=default;endFill=0;curved=1;" parent="1" edge="1">
          <mxGeometry width="50" height="50" relative="1" as="geometry">
            <mxPoint x="1221" y="189.66" as="sourcePoint" />
            <mxPoint x="1271" y="190.00000000000003" as="targetPoint" />
          </mxGeometry>
        </mxCell>
        <mxCell id="AgC99t1CVHgvSRt5C8VI-42" value="" style="ellipse;whiteSpace=wrap;html=1;aspect=fixed;strokeColor=none;rounded=0;strokeWidth=8;align=center;verticalAlign=middle;fontFamily=Helvetica;fontSize=11;fontColor=default;labelBackgroundColor=default;fillColor=#3399FF;" parent="1" vertex="1">
          <mxGeometry x="1265" y="180.00000000000003" width="20" height="20" as="geometry" />
        </mxCell>
        <mxCell id="AgC99t1CVHgvSRt5C8VI-43" value="" style="ellipse;whiteSpace=wrap;html=1;aspect=fixed;strokeColor=none;rounded=0;strokeWidth=8;align=center;verticalAlign=middle;fontFamily=Helvetica;fontSize=11;fontColor=default;labelBackgroundColor=default;fillColor=#3399FF;" parent="1" vertex="1">
          <mxGeometry x="1366" y="180.00000000000003" width="20" height="20" as="geometry" />
        </mxCell>
        <mxCell id="AgC99t1CVHgvSRt5C8VI-44" value="" style="endArrow=none;html=1;rounded=0;strokeColor=#3399FF;strokeWidth=8;align=center;verticalAlign=middle;fontFamily=Helvetica;fontSize=11;fontColor=default;labelBackgroundColor=default;endFill=0;curved=1;" parent="1" edge="1">
          <mxGeometry width="50" height="50" relative="1" as="geometry">
            <mxPoint x="1281" y="189.76000000000002" as="sourcePoint" />
            <mxPoint x="1371" y="190.00000000000003" as="targetPoint" />
          </mxGeometry>
        </mxCell>
        <mxCell id="AgC99t1CVHgvSRt5C8VI-48" value="" style="ellipse;whiteSpace=wrap;html=1;aspect=fixed;strokeColor=none;rounded=0;strokeWidth=8;align=center;verticalAlign=middle;fontFamily=Helvetica;fontSize=11;fontColor=default;labelBackgroundColor=default;fillColor=#00CCCC;gradientColor=none;" parent="1" vertex="1">
          <mxGeometry x="1301" y="220.00000000000003" width="20" height="20" as="geometry" />
        </mxCell>
        <mxCell id="AgC99t1CVHgvSRt5C8VI-49" value="" style="endArrow=none;html=1;rounded=0;strokeColor=#00CCCC;strokeWidth=8;align=center;verticalAlign=middle;fontFamily=Helvetica;fontSize=11;fontColor=default;labelBackgroundColor=default;endFill=0;curved=1;" parent="1" edge="1">
          <mxGeometry width="50" height="50" relative="1" as="geometry">
            <mxPoint x="1316" y="229.71000000000006" as="sourcePoint" />
            <mxPoint x="1406" y="229.95000000000007" as="targetPoint" />
          </mxGeometry>
        </mxCell>
        <mxCell id="AgC99t1CVHgvSRt5C8VI-50" value="" style="ellipse;whiteSpace=wrap;html=1;aspect=fixed;strokeColor=none;rounded=0;strokeWidth=8;align=center;verticalAlign=middle;fontFamily=Helvetica;fontSize=11;fontColor=default;labelBackgroundColor=default;fillColor=#00CCCC;" parent="1" vertex="1">
          <mxGeometry x="1401" y="220.00000000000003" width="20" height="20" as="geometry" />
        </mxCell>
        <mxCell id="AgC99t1CVHgvSRt5C8VI-51" value="" style="endArrow=none;html=1;rounded=0;strokeColor=#00CCCC;strokeWidth=8;align=center;verticalAlign=middle;fontFamily=Helvetica;fontSize=11;fontColor=default;labelBackgroundColor=default;endFill=0;curved=1;" parent="1" edge="1">
          <mxGeometry width="50" height="50" relative="1" as="geometry">
            <mxPoint x="1411" y="229.88000000000008" as="sourcePoint" />
            <mxPoint x="1461" y="230.03" as="targetPoint" />
          </mxGeometry>
        </mxCell>
        <mxCell id="AgC99t1CVHgvSRt5C8VI-52" value="" style="ellipse;whiteSpace=wrap;html=1;aspect=fixed;strokeColor=none;rounded=0;strokeWidth=8;align=center;verticalAlign=middle;fontFamily=Helvetica;fontSize=11;fontColor=default;labelBackgroundColor=default;fillColor=#00CCCC;" parent="1" vertex="1">
          <mxGeometry x="1451" y="220.00000000000003" width="20" height="20" as="geometry" />
        </mxCell>
        <mxCell id="3oCc5eSl0xRHE3MTr0i1-1" value="" style="shape=flexArrow;endArrow=classic;html=1;rounded=0;fillColor=#dae8fc;strokeColor=#6c8ebf;strokeWidth=2;" parent="1" edge="1">
          <mxGeometry width="50" height="50" relative="1" as="geometry">
            <mxPoint x="1229.17" y="240" as="sourcePoint" />
            <mxPoint x="1229.17" y="320" as="targetPoint" />
          </mxGeometry>
        </mxCell>
        <mxCell id="3oCc5eSl0xRHE3MTr0i1-2" value="&amp;nbsp;git merge dev" style="rounded=1;whiteSpace=wrap;html=1;fillColor=#dae8fc;strokeColor=#6c8ebf;strokeWidth=2;fontFamily=Helvetica;" parent="1" vertex="1">
          <mxGeometry x="1110" y="260" width="100" height="30" as="geometry" />
        </mxCell>
        <mxCell id="3oCc5eSl0xRHE3MTr0i1-3" value="" style="endArrow=classic;html=1;rounded=0;" parent="1" edge="1">
          <mxGeometry width="50" height="50" relative="1" as="geometry">
            <mxPoint x="1261" y="119.64999999999998" as="sourcePoint" />
            <mxPoint x="1260.58" y="140" as="targetPoint" />
          </mxGeometry>
        </mxCell>
        <mxCell id="3oCc5eSl0xRHE3MTr0i1-4" value="&lt;font style=&quot;font-size: 9px;&quot;&gt;HEAD&lt;/font&gt;" style="text;html=1;align=center;verticalAlign=middle;whiteSpace=wrap;rounded=0;" parent="1" vertex="1">
          <mxGeometry x="1246" y="103.64999999999998" width="30" height="15" as="geometry" />
        </mxCell>
        <mxCell id="3oCc5eSl0xRHE3MTr0i1-5" value="" style="endArrow=classic;html=1;rounded=0;" parent="1" edge="1">
          <mxGeometry width="50" height="50" relative="1" as="geometry">
            <mxPoint x="1416" y="330" as="sourcePoint" />
            <mxPoint x="1415.58" y="350.35" as="targetPoint" />
          </mxGeometry>
        </mxCell>
        <mxCell id="3oCc5eSl0xRHE3MTr0i1-6" value="&lt;font style=&quot;font-size: 9px;&quot;&gt;HEAD&lt;/font&gt;" style="text;html=1;align=center;verticalAlign=middle;whiteSpace=wrap;rounded=0;" parent="1" vertex="1">
          <mxGeometry x="1401" y="314" width="30" height="15" as="geometry" />
        </mxCell>
        <mxCell id="K9rulrqxBFJ0LSO2nwOt-1" value="&lt;font face=&quot;Verdana&quot; color=&quot;#ffffff&quot;&gt;main&lt;/font&gt;" style="rounded=1;whiteSpace=wrap;html=1;strokeColor=none;fillColor=#666666;" vertex="1" parent="1">
          <mxGeometry x="919" y="135" width="49" height="30" as="geometry" />
        </mxCell>
        <mxCell id="K9rulrqxBFJ0LSO2nwOt-2" value="&lt;font face=&quot;Verdana&quot; color=&quot;#ffffff&quot;&gt;dev&lt;/font&gt;" style="rounded=1;whiteSpace=wrap;html=1;strokeColor=none;fillColor=#3399FF;" vertex="1" parent="1">
          <mxGeometry x="1032" y="175" width="49" height="30" as="geometry" />
        </mxCell>
      </root>
    </mxGraphModel>
  </diagram>
</mxfile>
